<svg width="913" height="700" viewBox="0 0 913 700" fill="none" xmlns="http://www.w3.org/2000/svg">
<g clip-path="url(#clip0)">
<rect width="913" height="700" fill="white"/>
<path opacity="0.9" d="M885.31 -212.129C904.366 -348.378 857.332 -489.192 775.278 -591.666C703.181 -685.809 694.771 -811.218 754.254 -905.187C821.291 -1026.66 849.102 -1172.49 812.025 -1304.97C733.665 -1632.65 353.174 -1841.08 -36.763 -1769.94C-426.7 -1698.8 -1103.75 -1284.48 -1025.39 -956.808C-1013.03 -912.647 -991.316 -869.113 -960.846 -835.164C-868.836 -724.36 -858.023 -563.121 -934.416 -441.024C-960.08 -403.311 -975.788 -357.267 -982.14 -311.851C-1016.05 23.3496 -289.741 343.563 106.202 362.002C502.747 389.398 852.002 132.029 885.31 -212.129Z" stroke="#041951" stroke-width="180" stroke-miterlimit="10" stroke-linecap="round" stroke-linejoin="round"/>
<path opacity="0.9" d="M988.295 -255.395C1009.81 -391.321 965.324 -532.907 885.14 -636.734C814.759 -732.067 808.615 -857.608 869.779 -950.588C938.991 -1070.94 969.427 -1216.31 934.75 -1349.4C862.322 -1678.35 485.688 -1893.07 94.5644 -1828.39C-296.559 -1763.72 -980.917 -1360.62 -908.49 -1031.67C-896.931 -987.307 -876.007 -943.416 -846.157 -908.964C-756.169 -796.642 -748.269 -635.232 -826.846 -514.405C-853.184 -477.119 -869.719 -431.338 -876.889 -386.029C-916.839 -51.4066 -196.491 280.816 199.021 305.809C594.972 339.769 948.784 88.1951 988.295 -255.395Z" stroke="#0739BB" stroke-opacity="0.8" stroke-width="240" stroke-miterlimit="10" stroke-linecap="round" stroke-linejoin="round"/>
<path opacity="0.9" d="M868.014 -276.176C891.722 -411.778 849.544 -554.021 771.058 -659.036C702.236 -755.412 698.126 -881.041 760.784 -973.109C831.931 -1092.43 864.715 -1237.34 832.201 -1370.94C765.117 -1700.96 392.04 -1921.27 -0.0489523 -1862.41C-392.138 -1803.54 -1082.88 -1410.64 -1015.8 -1080.62C-1004.96 -1036.08 -984.751 -991.881 -955.466 -956.986C-867.316 -843.331 -862.032 -681.808 -942.55 -562.153C-969.487 -525.259 -986.76 -479.725 -994.662 -434.524C-1040.02 -100.505 -325.208 242.412 69.8161 273.282C465.134 313.126 822.947 66.8169 868.014 -276.176Z" stroke="#273297" stroke-width="120" stroke-miterlimit="10" stroke-linecap="round" stroke-linejoin="round"/>
</g>
<defs>
<clipPath id="clip0">
<rect width="913" height="700" fill="white"/>
</clipPath>
</defs>
</svg>
