<svg width="175" height="87" viewBox="0 0 175 87" fill="none" xmlns="http://www.w3.org/2000/svg">
<path d="M51.2535 8.58006L3.50586 2.3942C1.56957 2.14574 0.0787905 1.40892 0.130197 0.766345C0.215873 0.123769 1.84373 -0.176116 3.82286 0.106617L51.4677 7.00361C52.7786 7.1921 53.7724 7.68902 53.7124 8.12597C53.6525 8.53722 52.5558 8.75141 51.2535 8.58006Z" fill="#ADAAE6"/>
<path d="M51.5534 9.39404L3.66007 4.44193C1.71521 4.24487 0.0616565 4.60469 0.00168279 5.24726C-0.0582909 5.88984 1.49246 6.5667 3.42875 6.73806L51.4077 11.0219C52.7271 11.1418 53.8067 10.8848 53.8495 10.4478C53.8838 9.98519 52.8642 9.53112 51.5534 9.39404Z" fill="#ADAAE6"/>
<path d="M123.402 45.4211L171.141 39.2352C173.077 38.9867 174.568 38.2499 174.517 37.6073C174.431 36.9648 172.803 36.6649 170.824 36.9476L123.179 43.8446C121.868 44.0331 120.874 44.53 120.934 44.967C120.994 45.3782 122.091 45.5924 123.402 45.4211Z" fill="#ADAAE6"/>
<path d="M123.093 46.235L170.987 41.2829C172.932 41.0859 174.585 41.4457 174.645 42.0883C174.705 42.7308 173.154 43.4077 171.218 43.5791L123.239 47.8629C121.92 47.9828 120.84 47.7258 120.797 47.2889C120.763 46.8262 121.783 46.3721 123.093 46.235Z" fill="#ADAAE6"/>
<path d="M83.8963 65.6322C96.7621 65.6322 107.192 55.2025 107.192 42.3367C107.192 29.471 96.7621 19.0412 83.8963 19.0412C71.0306 19.0412 60.6008 29.471 60.6008 42.3367C60.6008 55.2025 71.0306 65.6322 83.8963 65.6322Z" fill="#FFD77C" stroke="#FFAB50" stroke-width="0.708145" stroke-miterlimit="10"/>
<path d="M83.8963 60.8001C94.0933 60.8001 102.36 52.5338 102.36 42.3367C102.36 32.1397 94.0933 23.8734 83.8963 23.8734C73.6993 23.8734 65.433 32.1397 65.433 42.3367C65.433 52.5338 73.6993 60.8001 83.8963 60.8001Z" fill="#FFD77C" stroke="#FFAB50" stroke-width="0.708145" stroke-miterlimit="10"/>
<path d="M83.8964 56.4048C91.666 56.4048 97.9645 50.1063 97.9645 42.3367C97.9645 34.5671 91.666 28.2686 83.8964 28.2686C76.1268 28.2686 69.8282 34.5671 69.8282 42.3367C69.8282 50.1063 76.1268 56.4048 83.8964 56.4048Z" fill="#FFD77C" stroke="#FFAB50" stroke-width="0.708145" stroke-miterlimit="10"/>
<path d="M70.3081 78.2524C83.1738 78.2524 93.6036 67.8226 93.6036 54.9569C93.6036 42.0911 83.1738 31.6614 70.3081 31.6614C57.4423 31.6614 47.0126 42.0911 47.0126 54.9569C47.0126 67.8226 57.4423 78.2524 70.3081 78.2524Z" fill="#FFD77C" stroke="#FFAB50" stroke-width="0.708145" stroke-miterlimit="10"/>
<path d="M70.308 73.4202C80.505 73.4202 88.7713 65.1539 88.7713 54.9569C88.7713 44.7599 80.505 36.4935 70.308 36.4935C60.1109 36.4935 51.8446 44.7599 51.8446 54.9569C51.8446 65.1539 60.1109 73.4202 70.308 73.4202Z" fill="#FFD77C" stroke="#FFAB50" stroke-width="0.708145" stroke-miterlimit="10"/>
<path d="M70.3081 69.025C78.0777 69.025 84.3762 62.7265 84.3762 54.9569C84.3762 47.1873 78.0777 40.8888 70.3081 40.8888C62.5385 40.8888 56.24 47.1873 56.24 54.9569C56.24 62.7265 62.5385 69.025 70.3081 69.025Z" fill="#FFD77C" stroke="#FFAB50" stroke-width="0.708145" stroke-miterlimit="10"/>
<path d="M70.308 62.8649C74.6754 62.8649 78.2159 59.3244 78.2159 54.9569C78.2159 50.5895 74.6754 47.049 70.308 47.049C65.9406 47.049 62.4 50.5895 62.4 54.9569C62.4 59.3244 65.9406 62.8649 70.308 62.8649Z" fill="#FFD77C" stroke="#FFAB50" stroke-width="0.708145" stroke-miterlimit="10"/>
<path d="M97.4848 78.2524C110.351 78.2524 120.78 67.8226 120.78 54.9569C120.78 42.0911 110.351 31.6614 97.4848 31.6614C84.6191 31.6614 74.1893 42.0911 74.1893 54.9569C74.1893 67.8226 84.6191 78.2524 97.4848 78.2524Z" fill="#FFD77C" stroke="#FFAB50" stroke-width="0.708145" stroke-miterlimit="10"/>
<path d="M97.4847 73.4202C107.682 73.4202 115.948 65.1539 115.948 54.9569C115.948 44.7599 107.682 36.4935 97.4847 36.4935C87.2877 36.4935 79.0214 44.7599 79.0214 54.9569C79.0214 65.1539 87.2877 73.4202 97.4847 73.4202Z" fill="#FFD77C" stroke="#FFAB50" stroke-width="0.708145" stroke-miterlimit="10"/>
<path d="M97.4846 69.025C105.254 69.025 111.553 62.7265 111.553 54.9569C111.553 47.1873 105.254 40.8888 97.4846 40.8888C89.715 40.8888 83.4165 47.1873 83.4165 54.9569C83.4165 62.7265 89.715 69.025 97.4846 69.025Z" fill="#FFD77C" stroke="#FFAB50" stroke-width="0.708145" stroke-miterlimit="10"/>
<path d="M97.4847 62.8649C101.852 62.8649 105.393 59.3244 105.393 54.9569C105.393 50.5895 101.852 47.049 97.4847 47.049C93.1173 47.049 89.5768 50.5895 89.5768 54.9569C89.5768 59.3244 93.1173 62.8649 97.4847 62.8649Z" fill="#FFD77C" stroke="#FFAB50" stroke-width="0.708145" stroke-miterlimit="10"/>
<path d="M35.3606 48.1713H132.424V52.7293C132.424 57.2298 131.537 61.6863 129.815 65.8442C128.093 70.0021 125.568 73.78 122.386 76.9624C119.204 80.1447 115.426 82.6691 111.268 84.3913C107.11 86.1136 102.654 87 98.1531 87H69.6313C65.1308 87 60.6744 86.1136 56.5165 84.3913C52.3585 82.6691 48.5806 80.1447 45.3983 76.9624C42.2159 73.78 39.6915 70.0021 37.9693 65.8442C36.247 61.6863 35.3606 57.2298 35.3606 52.7293V48.1713Z" fill="#ADAAE6"/>
<path opacity="0.1" d="M123.667 48.1627C123.415 58.2868 119.216 67.9113 111.967 74.983C104.717 82.0546 94.9916 86.0134 84.8644 86.0147H65.5957C68.4066 86.6567 71.2801 86.9842 74.1634 86.9914H93.5777C98.6782 86.9937 103.729 85.991 108.442 84.0407C113.155 82.0904 117.437 79.2306 121.045 75.6248C124.652 72.019 127.514 67.7378 129.466 63.0258C131.419 58.3137 132.424 53.2632 132.424 48.1627H123.667Z" fill="black"/>
<path d="M46.1987 5.11871H45.3419V40.2462H46.1987V5.11871Z" fill="#FFD77C" stroke="#FFAB50" stroke-width="0.177036" stroke-miterlimit="10"/>
<path d="M47.0554 5.11871H46.1986V40.2462H47.0554V5.11871Z" fill="#FFD77C" stroke="#FFAB50" stroke-width="0.177036" stroke-miterlimit="10"/>
<path d="M47.9121 5.11871H47.0553V40.2462H47.9121V5.11871Z" fill="#FFD77C" stroke="#FFAB50" stroke-width="0.177036" stroke-miterlimit="10"/>
<path d="M48.7689 5.11871H47.9121V40.2462H48.7689V5.11871Z" fill="#FFD77C" stroke="#FFAB50" stroke-width="0.177036" stroke-miterlimit="10"/>
<path d="M49.6257 5.11871H48.7689V40.2462H49.6257V5.11871Z" fill="#FFD77C" stroke="#FFAB50" stroke-width="0.177036" stroke-miterlimit="10"/>
<path d="M50.4824 5.11871H49.6256V40.2462H50.4824V5.11871Z" fill="#FFD77C" stroke="#FFAB50" stroke-width="0.177036" stroke-miterlimit="10"/>
<path d="M51.3391 5.11871H50.4823V40.2462H51.3391V5.11871Z" fill="#FFD77C" stroke="#FFAB50" stroke-width="0.177036" stroke-miterlimit="10"/>
</svg>
