<svg width="69" height="69" viewBox="0 0 69 69" fill="none" xmlns="http://www.w3.org/2000/svg">
<g filter="url(#filter0_d)">
<rect x="4" width="61" height="61" rx="12" fill="#273297"/>
</g>
<path d="M55.8591 16.5566C55.8591 16.5104 55.8591 16.4181 55.8591 16.4181C55.6282 13.6928 47.4526 13 43.1107 13C38.7689 13 30.5932 13.739 30.3623 16.4181V16.4642V16.5104V16.5566C30.3623 16.6952 30.4085 16.88 30.4547 17.0185L31.9327 23.1618C29.9466 22.6999 27.7756 22.8847 26.6671 24.4551C26.6209 24.5013 26.3438 25.2865 26.3438 25.2865C25.5123 23.947 23.7109 23.0232 22.3714 22.7923C22.3252 22.7923 22.3252 22.7923 22.279 22.7923C22.2329 22.7923 22.2329 22.7923 22.1867 22.7923C21.1705 22.6537 19.9234 22.7923 18.9072 23.208C17.6139 23.7161 16.8286 24.5937 16.6901 25.6099C16.6901 25.656 16.6901 25.7022 16.6901 25.7484L16.7362 26.4875C15.212 26.626 13.8725 27.1341 12.8101 27.8732C11.563 28.797 10.9163 29.9979 11.0087 31.245C11.0549 32.1688 11.4706 33.0464 12.2558 33.7393C13.4568 34.8478 15.3505 35.4483 17.3829 35.4945C17.7062 36.6031 18.3067 37.3421 19.831 37.5731L20.0157 37.6192C20.2005 37.6654 20.3853 37.6654 20.57 37.6654C20.9395 37.6654 21.3552 37.6192 21.7248 37.5269C21.6786 38.6816 22.1405 39.6516 23.48 40.5754L23.6647 40.6678C24.4962 41.2221 25.189 41.453 25.8819 41.453C26.2514 41.453 26.6209 41.3606 26.9442 41.2221C27.0366 41.7763 27.2676 42.3306 27.4985 42.7463L27.5909 42.8849C28.2837 44.0396 29.069 44.4554 29.9928 44.4554C30.2699 44.4554 30.547 44.4092 30.8242 44.363C31.5632 46.4877 32.9027 48.1967 34.4732 48.9358C35.0737 49.2129 35.6741 49.3515 36.2284 49.3515C36.5979 49.3515 36.9213 49.3053 37.2446 49.1667C38.4455 48.751 39.3231 47.6887 39.6927 46.1182C40.016 44.7325 39.9236 43.162 39.4617 41.5916L39.785 41.4992C39.8312 41.4992 39.8774 41.453 39.9236 41.453C40.4779 41.1297 40.8936 40.5754 41.1245 39.9287C41.7712 39.9749 42.4179 40.0211 43.1107 40.0211C47.4064 40.0211 51.702 38.8664 51.8868 36.6031C51.8868 36.5569 51.8868 36.5107 51.8868 36.4645V32.8617L55.7293 17.1063C55.7755 16.9677 55.8591 16.5104 55.8591 16.5566ZM43.1107 14.3395C50.5011 14.3395 54.3811 15.8176 54.4734 16.5104L54.4272 16.6952C53.9653 17.388 50.1316 18.7276 43.1107 18.7276C36.0898 18.7276 32.2561 17.388 31.7942 16.6952L31.748 16.5104C31.8404 15.8176 35.7203 14.3395 43.1107 14.3395ZM32.2099 18.4966C34.9351 19.6975 39.9698 20.0671 43.1107 20.0671C46.2516 20.0671 51.2863 19.6975 54.0115 18.4966L50.6397 32.6769C50.6397 32.7231 50.6397 32.7693 50.6397 32.8155C50.6397 33.6931 47.6835 34.9864 43.2031 34.9864C42.1869 34.9864 41.2169 34.894 40.2469 34.8017C39.4617 33.7393 38.2608 32.8155 36.9674 32.4922L37.4755 32.0303C37.5217 31.9841 37.5319 31.973 37.5679 31.9379C38.076 31.1988 38.2608 30.2289 38.0298 29.2127C37.7065 27.5036 36.367 25.5637 34.7965 24.4551C34.7503 24.4551 34.7503 24.4089 34.7041 24.4089C34.6579 24.4089 34.6579 24.3627 34.6118 24.3627C34.2422 24.1318 33.8727 23.9008 33.457 23.7161L32.2099 18.4966ZM13.2258 32.7693C12.8563 32.446 12.4406 31.8917 12.3944 31.1988C12.3482 30.4136 12.8101 29.5822 13.6415 28.9817C14.4729 28.3813 15.5815 27.9655 16.8286 27.827L17.152 33.6469C17.152 33.8317 17.1981 33.9702 17.1981 34.155C15.5815 34.0626 14.1034 33.5545 13.2258 32.7693ZM20.2929 36.2797L20.1081 36.2335C18.9072 36.0488 18.6762 35.6793 18.5377 33.5083L18.1219 25.7022C18.2605 25.0094 19.0457 24.5937 19.5076 24.4089C20.2929 24.0856 21.2629 23.9932 22.0481 24.0856C22.0943 24.0856 22.0943 24.0856 22.1405 24.0856C22.1867 24.0856 22.1867 24.0856 22.2329 24.0856C23.2952 24.2703 24.7733 25.0556 25.2814 26.0256C25.42 26.3027 25.6144 27.0852 25.5585 27.3189L22.6486 34.3398C22.4638 34.894 22.279 35.4021 22.1405 35.864C22.0943 35.864 22.0019 35.9102 21.9557 35.9564C21.6324 36.1874 20.801 36.3721 20.2929 36.2797ZM24.45 39.5592L24.2652 39.4668C22.7871 38.4507 22.8333 37.6192 23.8033 34.9864L27.8218 25.2403C28.6994 24.0856 30.8704 24.178 32.5794 24.8708H32.6256C33.0413 25.0556 33.457 25.2403 33.8265 25.4713C33.8727 25.4713 33.8727 25.5175 33.9189 25.5175C33.9651 25.5175 33.9651 25.5637 34.0113 25.5637C35.3046 26.4413 36.4132 28.0579 36.6441 29.4436C36.7827 30.0903 36.6903 30.6446 36.4132 31.1065L28.7918 38.3583C26.7133 40.2521 25.9742 40.5754 24.45 39.5592ZM38.4455 45.8872C38.1684 46.9496 37.6141 47.6887 36.8751 47.9658C36.2284 48.1967 35.5817 47.9658 35.1198 47.781C33.9189 47.1806 32.8103 45.7949 32.2099 44.0858C32.2561 44.0858 32.3023 44.0858 32.3484 44.0396L38.2146 42.0997C38.6303 43.4392 38.7227 44.7787 38.4455 45.8872ZM39.3231 40.2983L31.9327 42.7001C29.8542 43.3006 29.3923 43.2544 28.7918 42.192L28.6994 42.0535C28.3299 41.4068 28.2375 40.7602 28.2837 40.5292V40.483C28.7456 40.1597 29.2075 39.744 29.7156 39.3283L35.3046 34.0164C35.3725 33.9582 35.4358 33.925 35.5282 33.8788C35.6695 33.8243 35.8589 33.7855 36.0436 33.7855C37.1522 33.6931 38.6765 34.8478 39.2769 35.9564L39.3231 36.0026C39.3231 36.0488 39.3693 36.0488 39.3693 36.095C39.785 36.7878 40.016 37.7116 39.9698 38.5892C39.9698 38.774 39.9698 38.9588 39.9236 39.1897C39.8774 39.6054 39.7388 40.0673 39.3231 40.2983ZM43.1569 38.7278C42.5564 38.7278 42.0021 38.6816 41.4017 38.6354C41.4017 38.6354 41.4017 38.6354 41.4017 38.5892C41.4017 37.804 41.2631 37.0188 40.986 36.2797C41.6788 36.3259 42.4179 36.3721 43.1569 36.3721C46.0669 36.3721 48.9306 35.8178 50.5935 34.8017V36.5107C50.5935 37.3883 47.6373 38.7278 43.1569 38.7278Z" fill="white"/>
<defs>
<filter id="filter0_d" x="0" y="0" width="69" height="69" filterUnits="userSpaceOnUse" color-interpolation-filters="sRGB">
<feFlood flood-opacity="0" result="BackgroundImageFix"/>
<feColorMatrix in="SourceAlpha" type="matrix" values="0 0 0 0 0 0 0 0 0 0 0 0 0 0 0 0 0 0 127 0"/>
<feOffset dy="4"/>
<feGaussianBlur stdDeviation="2"/>
<feColorMatrix type="matrix" values="0 0 0 0 0 0 0 0 0 0 0 0 0 0 0 0 0 0 0.25 0"/>
<feBlend mode="normal" in2="BackgroundImageFix" result="effect1_dropShadow"/>
<feBlend mode="normal" in="SourceGraphic" in2="effect1_dropShadow" result="shape"/>
</filter>
</defs>
</svg>
