<svg width="69" height="69" viewBox="0 0 69 69" fill="none" xmlns="http://www.w3.org/2000/svg">
<g filter="url(#filter0_d)">
<mask id="path-1-inside-1" fill="white">
<rect x="4" width="61" height="61" rx="12"/>
</mask>
<rect x="4" width="61" height="61" rx="12" fill="#273297"/>
<rect x="4" width="61" height="61" rx="12" stroke="#273297" stroke-width="40" mask="url(#path-1-inside-1)"/>
</g>
<path d="M39 15.3825C36.7016 16.3289 33.821 15.3825 33.821 15.3825C33.821 15.3825 34.2016 11.3112 36.5 10.5C38.7984 9.6888 41 9.50002 41 9.50002C41 9.50002 41.2984 14.4361 39 15.3825Z" stroke="white" stroke-width="3" stroke-miterlimit="10" stroke-linecap="round" stroke-linejoin="round"/>
<path d="M42.8796 20.3034C40.8516 19.8978 38.6883 20.4386 37.0659 21.5202C35.5787 22.4666 33.6859 22.4666 32.3338 21.5202C30.5762 20.4386 28.413 19.8978 26.3849 20.3034C21.3825 21.1146 17.8672 26.3875 18.5432 32.066C19.2192 37.7445 24.7625 47.8846 29.765 47.0734C30.441 46.9382 31.117 46.6678 31.6578 46.2622C33.4154 45.0454 35.8491 45.0454 37.6067 46.2622C38.1475 46.6678 38.8235 46.9382 39.4995 47.0734C44.502 47.8846 50.0453 37.7445 50.7213 32.066C51.5325 26.3875 48.0173 21.1146 42.8796 20.3034Z" stroke="white" stroke-width="4" stroke-miterlimit="10" stroke-linecap="round" stroke-linejoin="round"/>
<path d="M28 10L28.7 10.48C32.725 13.2 35 17.52 35 22" stroke="white" stroke-width="2" stroke-miterlimit="10" stroke-linecap="round" stroke-linejoin="round"/>
<defs>
<filter id="filter0_d" x="0" y="0" width="69" height="69" filterUnits="userSpaceOnUse" color-interpolation-filters="sRGB">
<feFlood flood-opacity="0" result="BackgroundImageFix"/>
<feColorMatrix in="SourceAlpha" type="matrix" values="0 0 0 0 0 0 0 0 0 0 0 0 0 0 0 0 0 0 127 0"/>
<feOffset dy="4"/>
<feGaussianBlur stdDeviation="2"/>
<feColorMatrix type="matrix" values="0 0 0 0 0 0 0 0 0 0 0 0 0 0 0 0 0 0 0.25 0"/>
<feBlend mode="normal" in2="BackgroundImageFix" result="effect1_dropShadow"/>
<feBlend mode="normal" in="SourceGraphic" in2="effect1_dropShadow" result="shape"/>
</filter>
</defs>
</svg>
