<svg width="69" height="69" viewBox="0 0 69 69" fill="none" xmlns="http://www.w3.org/2000/svg">
<g filter="url(#filter0_d)">
<rect x="4" width="61" height="61" rx="12" fill="#273297"/>
<path d="M21 24C17.018 20.018 15.1821 16.2491 19.1641 12.2671L36.1643 29.2673L41.8311 34.9341L50.5609 43.6639C52.0925 45.1955 52.0925 47.4928 50.5609 49.0243C49.0294 50.5559 46.2726 50.5559 44.8942 48.718L39.0001 40C37.4686 38.009 30.9505 31.5811 28.5 32.5L27.5 30.5L21 24Z" stroke="white" stroke-width="2" stroke-miterlimit="10" stroke-linecap="round" stroke-linejoin="round"/>
<path d="M42 25L50.5 16.5" stroke="white" stroke-width="2" stroke-miterlimit="10" stroke-linecap="round" stroke-linejoin="round"/>
<path d="M38.4615 31.5647C39.0742 31.4115 39.5336 31.4115 40.1463 31.2584C42.1373 31.1052 44.4346 30.0331 46.7319 27.7358L54.2365 20.2312" stroke="white" stroke-width="2" stroke-miterlimit="10" stroke-linecap="round" stroke-linejoin="round"/>
<path d="M30.8038 34.5L17.3262 44.1234C15.6415 45.3486 14.9685 47.6216 16.5001 49C18.0316 50.5316 20.2747 49.5316 21.4999 48L34 36.5" stroke="white" stroke-width="2" stroke-miterlimit="10" stroke-linecap="round" stroke-linejoin="round"/>
<path d="M47 12L41.5001 17.5C39.2028 19.7973 37.5001 22.509 37.5001 24.5C37.5001 25.1126 36.1533 27.8874 36.0001 28.5" stroke="white" stroke-width="2" stroke-miterlimit="10" stroke-linecap="round" stroke-linejoin="round"/>
</g>
<defs>
<filter id="filter0_d" x="0" y="0" width="69" height="69" filterUnits="userSpaceOnUse" color-interpolation-filters="sRGB">
<feFlood flood-opacity="0" result="BackgroundImageFix"/>
<feColorMatrix in="SourceAlpha" type="matrix" values="0 0 0 0 0 0 0 0 0 0 0 0 0 0 0 0 0 0 127 0"/>
<feOffset dy="4"/>
<feGaussianBlur stdDeviation="2"/>
<feColorMatrix type="matrix" values="0 0 0 0 0 0 0 0 0 0 0 0 0 0 0 0 0 0 0.25 0"/>
<feBlend mode="normal" in2="BackgroundImageFix" result="effect1_dropShadow"/>
<feBlend mode="normal" in="SourceGraphic" in2="effect1_dropShadow" result="shape"/>
</filter>
</defs>
</svg>
