<svg width="39" height="38" viewBox="0 0 39 38" fill="none" xmlns="http://www.w3.org/2000/svg">
<ellipse cx="19.5" cy="19" rx="19.5" ry="19" fill="#027E2A" fill-opacity="0.2"/>
<g clip-path="url(#clip0)">
<path d="M17.0968 27.9996C16.7588 27.9996 16.4342 27.8631 16.1946 27.6191L9.37435 20.6754C8.87587 20.1681 8.87587 19.3454 9.37435 18.8378C9.87257 18.3302 10.6809 18.3299 11.1791 18.8378L17.0444 24.8088L28.7722 11.4338C29.2415 10.899 30.0482 10.8518 30.5742 11.3299C31.1 11.808 31.1459 12.6294 30.6763 13.1647L18.0487 27.5654C17.815 27.832 17.4836 27.9888 17.1328 27.9991C17.1208 27.9993 17.1088 27.9996 17.0968 27.9996Z" fill="white"/>
</g>
<defs>
<clipPath id="clip0">
<rect width="22" height="17" fill="white" transform="translate(9 11)"/>
</clipPath>
</defs>
</svg>
