<svg width="69" height="69" viewBox="0 0 69 69" fill="none" xmlns="http://www.w3.org/2000/svg">
<g filter="url(#filter0_d)">
<rect x="4" width="61" height="61" rx="12" fill="#273297"/>
</g>
<path d="M34.343 11.2758C34.9287 14.3824 34.2411 15.923 31.5546 17.3618C30.3323 18.0111 29.0082 18.4567 27.7477 19.0042C27.3021 19.2079 26.831 19.488 26.8819 20.0483C26.9583 20.7485 27.5567 20.6085 28.0151 20.5703C28.8299 20.5066 29.7339 20.443 29.8358 21.4997C29.9504 22.6584 28.9827 22.8366 28.1297 22.9257C26.7291 23.0785 25.3922 23.3841 24.2209 24.2117C23.1768 24.9502 23.215 25.6377 24.3864 26.1852C25.1631 26.5417 25.9907 26.6945 26.8437 26.7199C27.6331 26.7327 28.1424 27.1019 28.0915 27.9295C28.0533 28.7826 27.4294 28.9863 26.6909 28.9735C25.1503 28.9481 23.6861 28.6552 22.4384 27.7003C21.9418 27.3184 21.5216 26.8855 20.885 27.4711C20.3121 28.0059 20.223 28.6552 20.6431 29.2664C21.1779 30.0558 21.5853 30.8834 20.5031 31.3672C19.4208 31.8638 18.8479 30.9598 18.4532 30.1194C17.7402 28.5916 17.7911 26.8091 19.1662 26.0197C21.2033 24.861 21.8527 22.3019 24.1572 21.5889C24.5392 21.4743 24.5519 21.156 24.5646 20.7231C24.5901 18.3039 25.2395 17.4636 27.5058 16.5851C28.5116 16.1904 29.5557 15.8339 30.4979 15.3246C32.5859 14.1787 32.7769 12.9819 31.3637 11.0848C30.8034 10.3336 29.4156 9.76062 30.3069 8.55106C31.0708 7.51975 32.2294 8.20729 33.1589 8.4492C37.2714 9.54417 40.76 11.5559 42.6699 15.5792C43.0264 16.3304 43.6757 16.3432 44.2487 16.5851C46.1585 17.4 46.897 18.5586 46.4768 20.5575C46.324 21.2833 46.4004 21.487 47.0752 21.6653C48.5522 22.0599 49.7363 22.8748 50.0546 24.4791C50.1946 25.1539 50.7803 25.2303 51.1877 25.5486C52.8429 26.8727 53.1994 29.1136 51.9771 30.6924C51.5442 31.2526 51.0477 31.7237 50.2965 31.3035C49.5835 30.9088 49.4943 30.2468 49.94 29.6102C50.4493 28.8717 50.5766 28.1969 49.9018 27.5093C49.1124 26.7072 48.6031 27.5475 48.0301 27.8531C46.7951 28.5407 45.471 28.8972 44.0577 28.9608C43.2174 28.999 42.2115 29.1518 42.1733 27.8913C42.1351 26.8091 43.0009 26.7454 43.8285 26.6945C44.7962 26.6436 45.7511 26.4398 46.6169 25.9942C47.1007 25.7523 47.6736 25.4849 47.6354 24.8483C47.61 24.199 46.9734 24.0462 46.4768 23.8679C45.3691 23.486 44.2232 23.486 43.0773 23.5496C42.3898 23.5878 41.6895 23.5878 41.4858 22.7475C41.2948 21.9454 41.8041 21.5252 42.4662 21.2578C42.5171 21.2324 42.5807 21.2069 42.6317 21.1814C43.2938 20.7231 44.5033 20.4302 44.1723 19.488C43.803 18.4058 42.568 18.3803 41.5112 18.5204C41.2184 18.5586 40.9383 18.7114 40.6582 18.8132C40.0088 19.0551 39.4486 18.9533 39.0921 18.3294C38.7102 17.6673 39.003 17.0689 39.5887 16.8143C40.5563 16.4068 40.2762 15.9612 39.8561 15.3246C38.7865 13.6312 37.0168 12.3071 34.343 11.2758Z" fill="white"/>
<path d="M37.2842 14.4079C38.15 14.497 38.5065 15.0063 38.5319 15.7448C38.5701 16.496 38.2136 17.1071 37.437 17.1453C36.5712 17.1963 36.151 16.6106 36.1637 15.7575C36.1765 14.9808 36.5839 14.548 37.2842 14.4079Z" fill="white"/>
<path d="M40.1362 24.1735C41.1166 24.3263 41.2949 24.9756 41.2567 25.7523C41.2185 26.4398 40.862 26.8982 40.149 26.8854C39.245 26.86 38.9521 26.2616 38.9776 25.434C39.0158 24.6446 39.4359 24.2626 40.1362 24.1735Z" fill="white"/>
<path d="M30.9689 26.4526C30.0649 26.3889 29.7721 25.8669 29.7721 25.1157C29.7721 24.3772 30.0267 23.7788 30.8925 23.7915C31.7074 23.817 32.0384 24.3263 32.0512 25.1029C32.0512 25.8796 31.6947 26.3507 30.9689 26.4526Z" fill="white"/>
<path d="M36.4693 20.914C37.2332 21.0159 37.5133 21.5506 37.4878 22.3019C37.4624 23.0785 37.1059 23.5878 36.291 23.5496C35.438 23.5114 35.196 22.913 35.2215 22.1745C35.247 21.4233 35.5525 20.9013 36.4693 20.914Z" fill="white"/>
<path d="M32.726 20.774C31.962 20.7103 31.5928 20.2647 31.5801 19.5008C31.5673 18.7878 31.7583 18.1384 32.5732 18.0748C33.4517 18.0111 33.8464 18.5586 33.8464 19.4116C33.8719 20.1756 33.5154 20.6339 32.726 20.774Z" fill="white"/>
<path d="M51.3915 32.2457C50.5002 31.66 49.7108 32.2967 49.0615 32.7423C47.47 33.85 46.0185 33.8755 44.5161 32.6277C43.6248 31.8892 42.6317 31.8638 41.7023 32.5768C40.0853 33.8118 38.4938 33.9518 36.8386 32.615C35.8582 31.8256 34.7887 31.9147 33.8465 32.6786C32.3059 33.9264 30.8417 33.8373 29.3011 32.6914C28.3589 31.9784 27.3149 31.7746 26.3217 32.6277C24.7557 33.9773 23.2278 33.7736 21.6108 32.6786C20.9869 32.2585 20.2357 31.7492 19.4336 32.2712C18.5806 32.8187 18.9498 33.6972 19.0516 34.4229C19.7137 39.0193 20.414 43.6029 21.1397 48.1865C21.5217 50.6056 22.8586 51.726 25.3541 51.7388C28.6772 51.7515 31.9876 51.7388 35.3107 51.7388C38.6338 51.7388 41.9442 51.7388 45.2673 51.7388C48.0047 51.7388 49.3416 50.5674 49.749 47.8172C50.3984 43.3992 51.0477 38.9938 51.6843 34.5757C51.8244 33.7736 52.3337 32.8696 51.3915 32.2457ZM26.8565 49.4342C25.4942 49.4215 23.7626 49.9817 23.4061 47.83C22.9986 45.3345 22.6549 42.8262 22.2856 40.3307C22.0437 38.7392 21.8145 37.1349 21.509 34.9832C23.4315 36.6129 24.9721 36.4092 26.5255 35.0468C27.1621 37.3896 26.9584 39.6177 27.2385 41.7949C27.4804 43.7047 27.6077 45.64 27.6459 47.5626C27.6459 48.2119 28.4353 49.447 26.8565 49.4342ZM31.7839 49.4724C30.4979 49.5234 29.9886 49.2051 29.925 47.8172C29.734 43.7302 29.3775 39.6559 29.0464 35.0341C30.9054 36.4728 32.4714 36.4728 34.2539 34.9068C34.2539 38.3063 34.2539 41.2729 34.2539 44.2395C34.2539 45.1435 34.2667 46.0475 34.2539 46.9515C34.1903 49.8035 34.7123 49.3451 31.7839 49.4724ZM40.7856 48.6321C40.7346 49.256 40.4291 49.4597 39.8561 49.447C39.0794 49.4342 38.29 49.4215 37.5134 49.4597C36.6858 49.4979 36.5075 49.0777 36.5075 48.352C36.5203 44.023 36.5203 39.7068 36.5203 34.8813C38.3664 36.511 39.9707 36.562 41.8041 34.9577C41.4349 39.8087 41.1039 44.214 40.7856 48.6321ZM47.9029 44.7106C47.7501 45.7164 47.5336 46.7223 47.4191 47.7281C47.279 48.8868 46.6551 49.3833 45.5219 49.447C43.0392 49.5998 43.0519 49.6252 43.2301 47.1297C43.523 43.1827 43.8031 39.2357 44.0959 35.0596C45.7639 36.0399 47.3427 36.9439 49.0233 35.0596C49.087 35.1996 49.1634 35.3524 49.227 35.4924C48.7814 38.5864 48.3485 41.6548 47.9029 44.7106Z" fill="white"/>
<defs>
<filter id="filter0_d" x="0" y="0" width="69" height="69" filterUnits="userSpaceOnUse" color-interpolation-filters="sRGB">
<feFlood flood-opacity="0" result="BackgroundImageFix"/>
<feColorMatrix in="SourceAlpha" type="matrix" values="0 0 0 0 0 0 0 0 0 0 0 0 0 0 0 0 0 0 127 0"/>
<feOffset dy="4"/>
<feGaussianBlur stdDeviation="2"/>
<feColorMatrix type="matrix" values="0 0 0 0 0 0 0 0 0 0 0 0 0 0 0 0 0 0 0.25 0"/>
<feBlend mode="normal" in2="BackgroundImageFix" result="effect1_dropShadow"/>
<feBlend mode="normal" in="SourceGraphic" in2="effect1_dropShadow" result="shape"/>
</filter>
</defs>
</svg>
