<svg width="69" height="69" viewBox="0 0 69 69" fill="none" xmlns="http://www.w3.org/2000/svg">
<g filter="url(#filter0_d)">
<rect x="4" width="61" height="61" rx="12" fill="#273297"/>
</g>
<path d="M28.7344 27.9375C30.5034 27.9375 31.9375 27.3639 31.9375 26.6562C31.9375 25.9486 30.5034 25.375 28.7344 25.375C26.9653 25.375 25.5312 25.9486 25.5312 26.6562C25.5312 27.3639 26.9653 27.9375 28.7344 27.9375Z" fill="white"/>
<path d="M50.0031 20.1219C46.2875 18.5844 41.4187 17.6875 36.1656 17.6875C25.0187 17.6875 16.5625 21.5312 16.5625 26.6562C16.5625 30.5 19.2531 33.575 23.6094 34.8562C24.8906 35.2406 26.1719 35.3687 27.5813 35.3687C29.2469 35.3687 31.0406 35.1125 32.7063 34.4719C35.3969 33.575 37.9594 32.0375 40.65 29.8594C42.1875 28.5781 44.2375 27.8094 46.4156 27.8094H48.0813C50.2594 27.8094 51.925 26.4 52.3094 24.4781C52.6937 22.8125 51.7969 21.0188 50.0031 20.1219ZM28.7344 30.5C25.4031 30.5 22.9688 28.8344 22.9688 26.6562C22.9688 24.4781 25.4031 22.8125 28.7344 22.8125C32.0656 22.8125 34.5 24.4781 34.5 26.6562C34.5 28.8344 32.0656 30.5 28.7344 30.5Z" fill="white"/>
<path d="M48.0813 30.5H46.4156C44.8781 30.5 43.3406 31.0125 42.3156 31.9094C39.3687 34.3438 36.4219 36.0094 33.475 37.0344C31.5531 37.675 29.5031 38.0594 27.5813 38.0594C26.0438 38.0594 24.3781 37.8031 22.9688 37.4188C20.2781 36.65 18.1 35.2406 16.5625 33.4469V35.625C16.5625 39.4688 19.2531 42.5438 23.6094 43.825C24.8906 44.2094 26.1719 44.3375 27.5813 44.3375C29.2469 44.3375 31.0406 44.0813 32.7063 43.4406C35.3969 42.5438 37.9594 41.0063 40.65 38.8281C42.1875 37.5469 44.2375 36.7781 46.4156 36.7781H48.0813C50.5156 36.7781 52.0531 35.1125 52.4375 33.3188C52.4375 33.1906 52.5656 33.0625 52.5656 32.9344V28.8344C51.2844 29.9875 49.7469 30.5 48.0813 30.5Z" fill="white"/>
<defs>
<filter id="filter0_d" x="0" y="0" width="69" height="69" filterUnits="userSpaceOnUse" color-interpolation-filters="sRGB">
<feFlood flood-opacity="0" result="BackgroundImageFix"/>
<feColorMatrix in="SourceAlpha" type="matrix" values="0 0 0 0 0 0 0 0 0 0 0 0 0 0 0 0 0 0 127 0"/>
<feOffset dy="4"/>
<feGaussianBlur stdDeviation="2"/>
<feColorMatrix type="matrix" values="0 0 0 0 0 0 0 0 0 0 0 0 0 0 0 0 0 0 0.25 0"/>
<feBlend mode="normal" in2="BackgroundImageFix" result="effect1_dropShadow"/>
<feBlend mode="normal" in="SourceGraphic" in2="effect1_dropShadow" result="shape"/>
</filter>
</defs>
</svg>
