<svg width="175" height="87" viewBox="0 0 175 87" fill="none" xmlns="http://www.w3.org/2000/svg">
<path d="M51.2535 8.58006L3.50586 2.3942C1.56957 2.14574 0.0787905 1.40892 0.130197 0.766345C0.215873 0.123769 1.84373 -0.176116 3.82286 0.106617L51.4677 7.00361C52.7786 7.1921 53.7724 7.68902 53.7124 8.12597C53.6525 8.53722 52.5558 8.75141 51.2535 8.58006Z" fill="#0A5924"/>
<path d="M51.5534 9.39398L3.66007 4.44186C1.71521 4.24481 0.0616565 4.60463 0.00168279 5.2472C-0.0582909 5.88978 1.49246 6.56664 3.42875 6.73799L51.4077 11.0218C52.7271 11.1418 53.8067 10.8847 53.8495 10.4478C53.8838 9.98513 52.8642 9.53106 51.5534 9.39398Z" fill="#0A5924"/>
<path d="M123.402 45.4211L171.141 39.2353C173.077 38.9868 174.568 38.25 174.517 37.6074C174.431 36.9648 172.803 36.6649 170.824 36.9477L123.179 43.8447C121.868 44.0332 120.874 44.5301 120.934 44.967C120.994 45.3783 122.091 45.5925 123.402 45.4211Z" fill="#0A5924"/>
<path d="M123.093 46.235L170.987 41.2829C172.932 41.0859 174.585 41.4457 174.645 42.0883C174.705 42.7308 173.154 43.4077 171.218 43.5791L123.239 47.8629C121.92 47.9828 120.84 47.7258 120.797 47.2889C120.763 46.8262 121.783 46.3721 123.093 46.235Z" fill="#0A5924"/>
<path d="M83.8963 65.6322C96.7621 65.6322 107.192 55.2024 107.192 42.3366C107.192 29.4709 96.7621 19.0411 83.8963 19.0411C71.0306 19.0411 60.6008 29.4709 60.6008 42.3366C60.6008 55.2024 71.0306 65.6322 83.8963 65.6322Z" fill="#FFD77C" stroke="#FFAB50" stroke-width="0.708145" stroke-miterlimit="10"/>
<path d="M83.8962 60.8001C94.0932 60.8001 102.36 52.5338 102.36 42.3367C102.36 32.1397 94.0932 23.8734 83.8962 23.8734C73.6992 23.8734 65.4329 32.1397 65.4329 42.3367C65.4329 52.5338 73.6992 60.8001 83.8962 60.8001Z" fill="#FFD77C" stroke="#FFAB50" stroke-width="0.708145" stroke-miterlimit="10"/>
<path d="M83.8965 56.4048C91.6661 56.4048 97.9646 50.1063 97.9646 42.3367C97.9646 34.5671 91.6661 28.2686 83.8965 28.2686C76.1269 28.2686 69.8284 34.5671 69.8284 42.3367C69.8284 50.1063 76.1269 56.4048 83.8965 56.4048Z" fill="#FFD77C" stroke="#FFAB50" stroke-width="0.708145" stroke-miterlimit="10"/>
<path d="M70.308 78.2524C83.1737 78.2524 93.6034 67.8226 93.6034 54.9569C93.6034 42.0911 83.1737 31.6614 70.308 31.6614C57.4422 31.6614 47.0125 42.0911 47.0125 54.9569C47.0125 67.8226 57.4422 78.2524 70.308 78.2524Z" fill="#FFD77C" stroke="#FFAB50" stroke-width="0.708145" stroke-miterlimit="10"/>
<path d="M70.3081 73.4202C80.5051 73.4202 88.7714 65.1539 88.7714 54.9569C88.7714 44.7599 80.5051 36.4935 70.3081 36.4935C60.1111 36.4935 51.8447 44.7599 51.8447 54.9569C51.8447 65.1539 60.1111 73.4202 70.3081 73.4202Z" fill="#FFD77C" stroke="#FFAB50" stroke-width="0.708145" stroke-miterlimit="10"/>
<path d="M70.3081 69.025C78.0777 69.025 84.3762 62.7265 84.3762 54.9569C84.3762 47.1873 78.0777 40.8888 70.3081 40.8888C62.5385 40.8888 56.24 47.1873 56.24 54.9569C56.24 62.7265 62.5385 69.025 70.3081 69.025Z" fill="#FFD77C" stroke="#FFAB50" stroke-width="0.708145" stroke-miterlimit="10"/>
<path d="M70.3079 62.8649C74.6753 62.8649 78.2158 59.3244 78.2158 54.9569C78.2158 50.5895 74.6753 47.049 70.3079 47.049C65.9404 47.049 62.3999 50.5895 62.3999 54.9569C62.3999 59.3244 65.9404 62.8649 70.3079 62.8649Z" fill="#FFD77C" stroke="#FFAB50" stroke-width="0.708145" stroke-miterlimit="10"/>
<path d="M97.4847 78.2524C110.35 78.2524 120.78 67.8226 120.78 54.9569C120.78 42.0911 110.35 31.6614 97.4847 31.6614C84.6189 31.6614 74.1892 42.0911 74.1892 54.9569C74.1892 67.8226 84.6189 78.2524 97.4847 78.2524Z" fill="#FFD77C" stroke="#FFAB50" stroke-width="0.708145" stroke-miterlimit="10"/>
<path d="M97.4848 73.4202C107.682 73.4202 115.948 65.1539 115.948 54.9569C115.948 44.7599 107.682 36.4935 97.4848 36.4935C87.2878 36.4935 79.0215 44.7599 79.0215 54.9569C79.0215 65.1539 87.2878 73.4202 97.4848 73.4202Z" fill="#FFD77C" stroke="#FFAB50" stroke-width="0.708145" stroke-miterlimit="10"/>
<path d="M97.4846 69.025C105.254 69.025 111.553 62.7265 111.553 54.9569C111.553 47.1873 105.254 40.8888 97.4846 40.8888C89.715 40.8888 83.4165 47.1873 83.4165 54.9569C83.4165 62.7265 89.715 69.025 97.4846 69.025Z" fill="#FFD77C" stroke="#FFAB50" stroke-width="0.708145" stroke-miterlimit="10"/>
<path d="M97.4846 62.8649C101.852 62.8649 105.393 59.3244 105.393 54.9569C105.393 50.5895 101.852 47.049 97.4846 47.049C93.1172 47.049 89.5767 50.5895 89.5767 54.9569C89.5767 59.3244 93.1172 62.8649 97.4846 62.8649Z" fill="#FFD77C" stroke="#FFAB50" stroke-width="0.708145" stroke-miterlimit="10"/>
<path d="M35.3606 48.1713H132.424V52.7293C132.424 57.2298 131.537 61.6862 129.815 65.8441C128.093 70.002 125.568 73.78 122.386 76.9623C119.204 80.1446 115.426 82.669 111.268 84.3913C107.11 86.1135 102.654 87 98.1531 87H69.6313C65.1308 87 60.6744 86.1135 56.5165 84.3913C52.3585 82.669 48.5806 80.1446 45.3983 76.9623C42.2159 73.78 39.6915 70.002 37.9693 65.8441C36.247 61.6862 35.3606 57.2298 35.3606 52.7293V48.1713Z" fill="#0A5924"/>
<path opacity="0.1" d="M123.667 48.1627C123.415 58.2868 119.216 67.9113 111.967 74.983C104.717 82.0546 94.9916 86.0134 84.8644 86.0147H65.5957C68.4066 86.6567 71.2801 86.9842 74.1634 86.9914H93.5777C98.6782 86.9937 103.729 85.991 108.442 84.0407C113.155 82.0904 117.437 79.2306 121.045 75.6248C124.652 72.019 127.514 67.7378 129.466 63.0258C131.419 58.3137 132.424 53.2632 132.424 48.1627H123.667Z" fill="black"/>
<path d="M46.1986 5.11865H45.3418V40.2461H46.1986V5.11865Z" fill="#FFD77C" stroke="#FFAB50" stroke-width="0.177036" stroke-miterlimit="10"/>
<path d="M47.0553 5.11865H46.1985V40.2461H47.0553V5.11865Z" fill="#FFD77C" stroke="#FFAB50" stroke-width="0.177036" stroke-miterlimit="10"/>
<path d="M47.9122 5.11865H47.0554V40.2461H47.9122V5.11865Z" fill="#FFD77C" stroke="#FFAB50" stroke-width="0.177036" stroke-miterlimit="10"/>
<path d="M48.7689 5.11865H47.9121V40.2461H48.7689V5.11865Z" fill="#FFD77C" stroke="#FFAB50" stroke-width="0.177036" stroke-miterlimit="10"/>
<path d="M49.6256 5.11865H48.7688V40.2461H49.6256V5.11865Z" fill="#FFD77C" stroke="#FFAB50" stroke-width="0.177036" stroke-miterlimit="10"/>
<path d="M50.4825 5.11865H49.6257V40.2461H50.4825V5.11865Z" fill="#FFD77C" stroke="#FFAB50" stroke-width="0.177036" stroke-miterlimit="10"/>
<path d="M51.3392 5.11865H50.4824V40.2461H51.3392V5.11865Z" fill="#FFD77C" stroke="#FFAB50" stroke-width="0.177036" stroke-miterlimit="10"/>
</svg>
